<!--?xml version="1.0" standalone="no"?-->              <svg id="sw-js-blob-svg" viewBox="0 0 100 100" xmlns="http://www.w3.org/2000/svg">                    <defs>                         <linearGradient id="sw-gradient" x1="0" x2="1" y1="1" y2="0">                            <stop id="stop1" stop-color="rgba(248, 117, 55, 1)" offset="0%"></stop>                            <stop id="stop2" stop-color="rgba(251, 168, 31, 1)" offset="100%"></stop>                        </linearGradient>                    </defs>                <path fill="url(#sw-gradient)" d="M16.5,-28.2C20.6,-22.9,22.7,-17.1,25.3,-11.5C27.9,-5.9,30.9,-0.5,31.5,5.4C32,11.3,30,17.8,25.5,21C21,24.2,14,24.1,7.4,26.8C0.8,29.5,-5.5,34.9,-12.4,35.8C-19.3,36.8,-26.8,33.2,-29,27.1C-31.2,21,-28.1,12.3,-29.2,4.3C-30.3,-3.8,-35.5,-11.2,-33.6,-15.4C-31.8,-19.7,-22.9,-20.8,-16.2,-24.9C-9.4,-29,-4.7,-36,0.7,-37.2C6.2,-38.3,12.3,-33.5,16.5,-28.2Z" width="100%" height="100%" transform="translate(50 50)" stroke-width="0" style="transition: all 0.3s ease 0s;"></path>              </svg>